<?xml version="1.0" encoding="UTF-8" standalone="no"?><!DOCTYPE svg PUBLIC "-//W3C//DTD SVG 1.1//EN" "http://www.w3.org/Graphics/SVG/1.1/DTD/svg11.dtd"><svg width="100%" height="100%" viewBox="0 0 256 256" version="1.1" xmlns="http://www.w3.org/2000/svg" xmlns:xlink="http://www.w3.org/1999/xlink" xml:space="preserve" xmlns:serif="http://www.serif.com/" style="fill-rule:evenodd;clip-rule:evenodd;stroke-linejoin:round;stroke-miterlimit:2;"><rect x="0" y="0" width="256" height="256" style="fill:#1976d2;"/><path d="M128,35.621l4.353,0c0.929,6.617 2.264,12.305 4.005,17.065c1.509,4.295 3.541,8.242 6.094,11.841c1.857,2.786 5.282,7.023 10.274,12.711c2.322,2.554 4.411,4.934 6.269,7.139c1.857,2.206 3.483,4.179 4.876,5.92c8.59,11.144 12.885,22.637 12.885,34.477c0,12.537 -5.282,27.512 -15.846,44.925l-2.786,0c0.697,-1.393 1.422,-2.989 2.177,-4.789c0.755,-1.799 1.596,-3.744 2.525,-5.833c0.813,-2.09 1.596,-4.034 2.351,-5.833c0.755,-1.799 1.422,-3.57 2.002,-5.311c1.277,-3.599 2.264,-6.907 2.96,-9.925c0.697,-3.134 1.045,-6.327 1.045,-9.577c0,-5.108 -1.045,-10.215 -3.134,-15.323c-2.206,-5.224 -5.05,-9.983 -8.532,-14.278c-3.599,-4.179 -7.778,-7.72 -12.537,-10.622c-4.992,-2.67 -9.867,-4.121 -14.627,-4.353l0,100.82c0,5.34 -1.799,10.39 -5.398,15.149c-3.599,4.527 -8.068,7.952 -13.408,10.274c-5.456,2.438 -10.854,3.657 -16.194,3.657c-5.224,0 -9.519,-1.335 -12.885,-4.005c-3.483,-2.67 -5.224,-6.443 -5.224,-11.318c0,-5.224 1.741,-10.041 5.224,-14.453c3.599,-4.643 8.01,-8.184 13.234,-10.622c5.34,-2.67 10.506,-4.005 15.497,-4.005c6.849,0 11.783,1.393 14.801,4.179l0,-137.909Z" style="fill:#fff;fill-rule:nonzero;"/></svg>